<?xml version="1.0" standalone="no"?>
<!DOCTYPE svg PUBLIC "-//W3C//DTD SVG 20010904//EN" "http://www.w3.org/TR/2001/REC-SVG-20010904/DTD/svg10.dtd">
<!-- Created using Krita: http://krita.org -->
<svg xmlns="http://www.w3.org/2000/svg" 
    xmlns:xlink="http://www.w3.org/1999/xlink"
    xmlns:krita="http://krita.org/namespaces/svg/krita"
    xmlns:sodipodi="http://sodipodi.sourceforge.net/DTD/sodipodi-0.dtd"
    width="841.92pt"
    height="595.2pt"
    viewBox="0 0 841.92 595.2">
<defs>
  <linearGradient id="gradient0" gradientUnits="objectBoundingBox" x1="0" y1="0" x2="0.685234144226403" y2="0.891302477201915" spreadMethod="pad">
   <stop stop-color="#0e0200" offset="0" stop-opacity="1"/>
   <stop stop-color="#400d00" offset="0.0446927361190319" stop-opacity="1"/>
   <stop stop-color="#5a1c00" offset="0.385474860668182" stop-opacity="1"/>
   <stop stop-color="#712a17" offset="0.452513962984085" stop-opacity="1"/>
   <stop stop-color="#b04000" offset="0.720670402050018" stop-opacity="1"/>
   <stop stop-color="#92552a" offset="0.821229040622711" stop-opacity="1"/>
   <stop stop-color="#f9b743" offset="1" stop-opacity="1"/>
  </linearGradient>
  <linearGradient id="gradient1" gradientUnits="objectBoundingBox" x1="0" y1="0" x2="1" y2="1" spreadMethod="pad">
   <stop stop-color="#006462" offset="0" stop-opacity="1"/>
   <stop stop-color="#006869" offset="0.240223467350006" stop-opacity="1"/>
   <stop stop-color="#008fa3" offset="0.486033529043198" stop-opacity="1"/>
   <stop stop-color="#0093a8" offset="0.620111703872681" stop-opacity="1"/>
   <stop stop-color="#009db6" offset="0.737430155277252" stop-opacity="1"/>
   <stop stop-color="#45c9df" offset="0.972067058086395" stop-opacity="1"/>
   <stop stop-color="#61eaff" offset="1" stop-opacity="1"/>
  </linearGradient>
  <linearGradient id="gradient2" gradientUnits="objectBoundingBox" x1="0.77315274253685" y1="-0.167243136201854" x2="0.252780234066746" y2="0.546798471225724" spreadMethod="pad">
   <stop stop-color="#00aeae" offset="0.134078212290503" stop-opacity="1"/>
   <stop stop-color="#006767" offset="1" stop-opacity="1"/>
  </linearGradient>
  <linearGradient id="gradient3" gradientUnits="objectBoundingBox" x1="-0.236741008004685" y1="0.124781459159859" x2="0.319823471458493" y2="-0.326437075217654" spreadMethod="pad">
   <stop stop-color="#006462" offset="0" stop-opacity="1"/>
   <stop stop-color="#006869" offset="0.240223467350006" stop-opacity="1"/>
   <stop stop-color="#008fa3" offset="0.486033529043198" stop-opacity="1"/>
   <stop stop-color="#0093a8" offset="0.620111703872681" stop-opacity="1"/>
   <stop stop-color="#009db6" offset="0.737430155277252" stop-opacity="1"/>
   <stop stop-color="#45c9df" offset="0.972067058086395" stop-opacity="1"/>
   <stop stop-color="#61eaff" offset="1" stop-opacity="1"/>
  </linearGradient>
 </defs>
<path id="shape0" transform="matrix(0.999999980417861 0 0 0.999999982510439 254.251012974843 50.5074972157987)" fill="url(#gradient0)" fill-rule="evenodd" stroke="#000000" stroke-width="2.4" stroke-linecap="square" stroke-linejoin="bevel" d="M11.1349 42.3644C22.6745 40.2505 27.939 67.0866 26.25 36.5928C26.0064 32.1951 71.2812 16.043 83.5198 9.6378C111.709 -3.57502 121.068 -2.89397 121.202 9.78922C95.2754 32.7315 121.138 15.1057 128.751 21.5884C132.334 24.64 131.989 32.6162 140.008 35.2082C144.91 43.2422 146.354 44.5907 130.971 50.9864C123.142 54.9205 93.5886 69.5172 81.9523 75.5961C59.1224 85.2646 74.7552 64.1125 56.3524 88.2133C32.746 100.195 21.1587 105.323 19.9598 96.9339C18.6579 88.5847 13.1565 78.3192 11.3457 71.7799C12.8218 66.8916 10.5319 66.1552 4.56639 59.1456C-2.83951 50.072 -1.63938 44.7044 11.1349 42.3644Z"/><path id="shape0" transform="translate(317.236113889028, 72.7459722287123)" fill="none" stroke="#000000" stroke-width="2.4" stroke-linecap="square" stroke-linejoin="bevel" d="M47.1501 0C32.5524 6.09724 16.8357 10.6691 0 13.7156"/><path id="shape1" transform="translate(320.07813604485, 100.29337066102)" fill="none" stroke="#000000" stroke-width="2.4" stroke-linecap="square" stroke-linejoin="bevel" d="M0 26.7003C11.9508 14.9158 24.4303 6.01567 37.4385 0"/><path id="shape2" transform="translate(266.363013415506, 109.664793039608)" fill="none" stroke="#000000" stroke-width="2.4" stroke-linecap="square" stroke-linejoin="bevel" d="M0 8.62632C3.43536 10.9302 15.9155 8.05473 37.4404 0"/><ellipse id="shape01" transform="matrix(0.999999986583267 0 0 0.999999961033594 315.964088590896 97.7239420972049)" rx="4.69524089906833" ry="3.8009092992458" cx="4.69524089906833" cy="3.8009092992458" fill="url(#gradient1)" fill-rule="evenodd" stroke="#000000" stroke-width="1" stroke-linecap="square" stroke-linejoin="bevel"/><path id="shape3" transform="matrix(0.999998225846122 -0.00188369440568024 0.00188369440568024 0.999998225846122 326.322187736329 144.263427833172)" fill="url(#gradient2)" fill-rule="evenodd" stroke="#000000" stroke-width="2.4" stroke-linecap="square" stroke-linejoin="bevel" d="M0.0215927 17.3211C-0.349832 26.5512 4.04293 29.8128 15.3372 29.6481C26.6315 29.4834 46.266 20.9745 48.6841 13.1892C50.7653 -0.476247 40.7057 -1.33795 30.8662 2.22585C20.9612 -0.370848 1.67373 -3.13575 0.462892 9.25279C0.939966 13.2632 0.312946 14.8013 0.0215927 17.3211Z"/><path id="shape02" transform="matrix(0.999999994447255 0 0 0.999999940899824 320.328958984394 100.515147843959)" fill="url(#gradient3)" fill-rule="evenodd" stroke="#000000" stroke-width="2.4" stroke-linecap="square" stroke-linejoin="bevel" d="M0 0C45.7726 5.59805 44.9269 33.2361 46.2497 45.301C47.5726 57.3658 18.7867 75.5293 20.8199 56.8743C22.4853 45.125 9.11125 10.931 0 0Z"/><circle id="shape121" transform="matrix(1.00000003301162 0 0 1.00000001364047 240.369118989161 21.3799762604161)" r="84" cx="84" cy="84" fill="none" stroke="#0000ff" stroke-width="9.6" stroke-linecap="square" stroke-linejoin="bevel"/>
</svg>
