<?xml version="1.0" standalone="no"?>
<!DOCTYPE svg PUBLIC "-//W3C//DTD SVG 20010904//EN" "http://www.w3.org/TR/2001/REC-SVG-20010904/DTD/svg10.dtd">
<!-- Created using Krita: http://krita.org -->
<svg xmlns="http://www.w3.org/2000/svg" 
    xmlns:xlink="http://www.w3.org/1999/xlink"
    xmlns:krita="http://krita.org/namespaces/svg/krita"
    xmlns:sodipodi="http://sodipodi.sourceforge.net/DTD/sodipodi-0.dtd"
    width="841.92pt"
    height="595.2pt"
    viewBox="0 0 841.92 595.2">
<defs/>
<circle id="shape132" transform="matrix(1.00000006489525 0 0 0.999999911408268 83.9999945487986 84.0000074417055)" r="84" cx="84" cy="84" fill="none" stroke="#571100" stroke-width="9.6" stroke-linecap="square" stroke-linejoin="bevel"/><ellipse id="shape0" transform="matrix(0.999999985817322 0 0 0.999999985817322 114.827224827888 114.827224827888)" rx="53.1727759262445" ry="53.1727759262446" cx="53.1727759262445" cy="53.1727759262446" fill="#a24600" stroke="#490e00" stroke-width="2.3819928" stroke-linecap="square" stroke-linejoin="bevel"/><ellipse id="shape01" transform="matrix(0.999999985817322 0 0 0.999999985817322 122.509792008271 122.50979200827)" rx="45.4902086369024" ry="45.4902086369025" cx="45.4902086369024" cy="45.4902086369025" fill="#792e00" stroke="#404040" stroke-width="2.3819928" stroke-linecap="square" stroke-linejoin="bevel"/><path id="shape0" transform="translate(168, 114.952708269295)" fill="none" stroke="#490e00" stroke-width="2.3819928" stroke-linecap="square" stroke-linejoin="bevel" d="M0 0L0 7.13304"/><path id="shape1" transform="translate(213.90037636862, 168)" fill="none" stroke="#490e00" stroke-width="2.3819928" stroke-linecap="square" stroke-linejoin="bevel" d="M6.99327 0L0 0"/><path id="shape2" transform="translate(115.420797860675, 168)" fill="none" stroke="#490e00" stroke-width="2.3819928" stroke-linecap="square" stroke-linejoin="bevel" d="M0 0L6.45168 0"/><path id="shape3" transform="translate(168, 214.020133326057)" fill="none" stroke="#490e00" stroke-width="2.3819928" stroke-linecap="square" stroke-linejoin="bevel" d="M0 7.1295L0 0"/><path id="shape4" transform="translate(129.070044367805, 198.714158525642)" fill="none" stroke="#490e00" stroke-width="2.3819928" stroke-linecap="square" stroke-linejoin="bevel" d="M0 4.62244L4.81032 0"/><path id="shape5" transform="translate(201.846314255972, 199.133196089687)" fill="none" stroke="#490e00" stroke-width="2.3819928" stroke-linecap="square" stroke-linejoin="bevel" d="M0 0L5.00277 4.93782"/><path id="shape6" transform="translate(199.830658183771, 129.867389469906)" fill="none" stroke="#490e00" stroke-width="2.3819928" stroke-linecap="square" stroke-linejoin="bevel" d="M0 5.18052L4.99734 0"/><path id="shape7" transform="translate(130.984607030341, 130.033230195714)" fill="none" stroke="#490e00" stroke-width="2.3819928" stroke-linecap="square" stroke-linejoin="bevel" d="M0 0L4.8071 5.31811"/><path id="shape8" transform="translate(137.215295452308, 135.351335926248)" fill="none" stroke="#490e00" stroke-width="2.3819928" stroke-linecap="square" stroke-linejoin="miter" stroke-miterlimit="2" d="M0 0L61.4821 0"/><path id="shape9" transform="translate(129.235709298179, 146.234034379444)" fill="none" stroke="#490e00" stroke-width="2.3819928" stroke-linecap="square" stroke-linejoin="miter" stroke-miterlimit="2" d="M0 0L77.6677 0"/><path id="shape10" transform="translate(135.085704975308, 198.714158525642)" fill="none" stroke="#490e00" stroke-width="2.3819928" stroke-linecap="square" stroke-linejoin="miter" stroke-miterlimit="2" d="M0 0L65.7072 0"/><path id="shape11" transform="translate(124.959831871837, 156.531914175992)" fill="none" stroke="#490e00" stroke-width="2.3819928" stroke-linecap="square" stroke-linejoin="miter" stroke-miterlimit="2" d="M0 0L85.6641 0"/><path id="shape12" transform="translate(122.853255793327, 168)" fill="none" stroke="#490e00" stroke-width="2.3819928" stroke-linecap="square" stroke-linejoin="miter" stroke-miterlimit="2" d="M0 0L89.204 0"/><path id="shape13" transform="translate(127.816335293333, 187.943537554312)" fill="none" stroke="#490e00" stroke-width="2.3819928" stroke-linecap="square" stroke-linejoin="miter" stroke-miterlimit="2" d="M0 2.84217e-14L79.8194 0"/><path id="shape14" transform="translate(124.351516985996, 178.281371181138)" fill="none" stroke="#490e00" stroke-width="2.3819928" stroke-linecap="square" stroke-linejoin="miter" stroke-miterlimit="2" d="M0 0L86.7959 0"/><ellipse id="shape15" transform="translate(122.509791363098, 122.509791363098)" rx="45.4902086369024" ry="45.4902086369025" cx="45.4902086369024" cy="45.4902086369025" fill="none" stroke="#404040" stroke-width="2.3819928" stroke-linecap="square" stroke-linejoin="bevel"/>
</svg>
