<?xml version="1.0" standalone="no"?>
<!DOCTYPE svg PUBLIC "-//W3C//DTD SVG 20010904//EN" "http://www.w3.org/TR/2001/REC-SVG-20010904/DTD/svg10.dtd">
<!-- Created using Krita: http://krita.org -->
<svg xmlns="http://www.w3.org/2000/svg" 
    xmlns:xlink="http://www.w3.org/1999/xlink"
    xmlns:krita="http://krita.org/namespaces/svg/krita"
    xmlns:sodipodi="http://sodipodi.sourceforge.net/DTD/sodipodi-0.dtd"
    width="841.92pt"
    height="595.2pt"
    viewBox="0 0 841.92 595.2">
<defs>
  <linearGradient id="gradient0" gradientUnits="objectBoundingBox" x1="0.496755456700044" y1="-0.174030810332564" x2="0.547429680225568" y2="0.903985971841673" spreadMethod="pad">
   <stop stop-color="#f8c800" offset="0" stop-opacity="1"/>
   <stop stop-color="#fb6800" offset="1" stop-opacity="1"/>
  </linearGradient>
  <linearGradient id="gradient1" gradientUnits="objectBoundingBox" x1="0" y1="0" x2="0.143979326330207" y2="1.53561163359411" spreadMethod="pad">
   <stop stop-color="#fb000c" offset="0" stop-opacity="1"/>
   <stop stop-color="#fb2100" offset="0.541899442672729" stop-opacity="1"/>
   <stop stop-color="#fb2100" offset="0.770949721336365" stop-opacity="1"/>
  </linearGradient>
  <linearGradient id="gradient2" gradientUnits="objectBoundingBox" x1="0.544441183214185" y1="-0.13634116178283" x2="0.583992720859082" y2="1.0543098058044" spreadMethod="pad">
   <stop stop-color="#f8c800" offset="0" stop-opacity="1"/>
   <stop stop-color="#fb6800" offset="1" stop-opacity="1"/>
  </linearGradient>
 </defs>
<path id="shape0" transform="matrix(1.00000004059732 0 0 0.999999958981751 40.5882316080439 39.4402623176575)" fill="url(#gradient0)" fill-rule="evenodd" stroke="#000000" stroke-width="2.4" stroke-linecap="square" stroke-linejoin="bevel" d="M20.2875 92.0541C17.6389 59.4175 -24.5865 27.1215 21.2088 59.4655C67.0041 91.8095 13.5955 13.5585 31.8227 26.9632C50.05 40.368 64.5602 75.8917 60.7471 53.7055C56.934 31.5194 71.0347 -11.1023 73.1396 2.69085C75.2444 16.4841 78.8336 57.4943 83.1841 59.4559C87.5346 61.4174 98.1997 33.5241 94.9688 26.474C91.7379 19.424 99.8119 22.0618 104.661 29.8936C109.511 37.7254 94.7449 66.1031 97.0481 69.0718C99.3513 72.0405 113.516 73.11 117.924 58.0027C122.332 42.8954 114.898 24.7475 125.736 44.3774C136.574 64.0073 133.771 83.0808 122.652 99.6317C111.533 116.183 94.7641 128.686 73.0244 128.336C51.2848 127.985 22.9362 111.588 20.2875 92.0541Z"/><path id="shape01" transform="matrix(0.99995063310935 0.00994044922385018 -0.00994044922385018 0.999950551497822 66.8016977332209 101.931717439559)" fill="url(#gradient1)" fill-rule="evenodd" stroke="#000000" stroke-width="2.4" stroke-linecap="square" stroke-linejoin="bevel" d="M20.8423 49.345C2.28669 36.7033 -3.1521 36.4219 1.65755 36.0881C6.46719 35.7543 24.8987 41.5408 21.993 39.0573C19.0874 36.5738 13.8721 31.4026 12.5599 27.6089C11.2479 23.8151 6.48375 21.8895 13.3961 22.6643C20.3084 23.4389 31.7613 35.2113 30.8093 30.9518C29.8574 26.6922 22.4772 16.5813 17.6014 15.3582C12.7255 14.1351 24.2157 11.6292 29.6835 14.3792C35.1513 17.1293 39.369 26.7968 40.6811 24.7343C41.9932 22.6717 44.932 5.07797 49.9445 2.13114C54.9569 -0.815682 53.9014 -1.49073 54.2202 5.26728C54.5389 12.0253 56.6664 22.1935 55.5902 24.4254C54.514 26.6573 63.7111 28.8842 65.495 21.3241C67.2791 13.764 80.1393 7.74829 77.6806 11.425C75.222 15.1016 77.838 30.887 71.2568 34.2946C64.6756 37.7023 63.827 37.8966 69.775 37.4582C75.7228 37.0197 88.0325 24.7941 86.05 29.4846C84.0673 34.175 79.5846 57.0746 66.621 59.2816C53.6572 61.4886 42.3947 67.6139 20.8423 49.345Z"/><path id="shape02" transform="matrix(0.219763191350659 0 0 0.2197695346587 101.527439745491 133.820283762108)" fill="url(#gradient2)" fill-rule="evenodd" stroke="#000000" stroke-width="2.4" stroke-linecap="square" stroke-linejoin="bevel" d="M20.2875 92.0541C17.6389 59.4175 -24.5865 27.1215 21.2088 59.4655C67.0041 91.8095 13.5955 13.5585 31.8227 26.9632C50.05 40.368 64.5602 75.8917 60.7471 53.7055C56.934 31.5194 71.0347 -11.1023 73.1396 2.69085C75.2444 16.4841 78.8336 57.4943 83.1841 59.4559C87.5346 61.4174 98.1997 33.5241 94.9688 26.474C91.7379 19.424 99.8119 22.0618 104.661 29.8936C109.511 37.7254 94.7449 66.1031 97.0481 69.0718C99.3513 72.0405 113.516 73.11 117.924 58.0027C122.332 42.8954 114.898 24.7475 125.736 44.3774C136.574 64.0073 133.771 83.0808 122.652 99.6317C111.533 116.183 94.7641 128.686 73.0244 128.336C51.2848 127.985 22.9362 111.588 20.2875 92.0541Z"/><circle id="shape14" transform="matrix(1.00000002242624 0 0 0.999999963314963 26.7468409687907 22.4082698827179)" r="84" cx="84" cy="84" fill="none" stroke="#ff0000" stroke-width="9.6" stroke-linecap="square" stroke-linejoin="bevel"/>
</svg>
