<?xml version="1.0" standalone="no"?>
<!DOCTYPE svg PUBLIC "-//W3C//DTD SVG 20010904//EN" "http://www.w3.org/TR/2001/REC-SVG-20010904/DTD/svg10.dtd">
<!-- Created using Krita: http://krita.org -->
<svg xmlns="http://www.w3.org/2000/svg" 
    xmlns:xlink="http://www.w3.org/1999/xlink"
    xmlns:krita="http://krita.org/namespaces/svg/krita"
    xmlns:sodipodi="http://sodipodi.sourceforge.net/DTD/sodipodi-0.dtd"
    width="841.92pt"
    height="595.2pt"
    viewBox="0 0 841.92 595.2">
<defs>
  <linearGradient id="gradient0" gradientUnits="objectBoundingBox" x1="0.2135627000299" y1="0.102351413430595" x2="0.535961998560642" y2="1.23430055735316" spreadMethod="pad">
   <stop stop-color="#8e9a9f" offset="0" stop-opacity="1"/>
   <stop stop-color="#353b3d" offset="0.737430155277252" stop-opacity="1"/>
   <stop stop-color="#383d3d" offset="0.910614550113678" stop-opacity="1"/>
   <stop stop-color="#0a222a" offset="1" stop-opacity="1"/>
  </linearGradient>
  <linearGradient id="gradient1" gradientUnits="objectBoundingBox" x1="0" y1="0" x2="1" y2="1" spreadMethod="pad">
   <stop stop-color="#8e9a9f" offset="0" stop-opacity="1"/>
   <stop stop-color="#f895d5" offset="0.737430155277252" stop-opacity="1"/>
   <stop stop-color="#383d3d" offset="0.910614550113678" stop-opacity="1"/>
   <stop stop-color="#0a222a" offset="1" stop-opacity="1"/>
  </linearGradient>
 </defs>
<path id="shape0" transform="matrix(1.00000002378138 0 0 0.99999994349593 483.221717250138 64.2654893932349)" fill="url(#gradient0)" stroke="#000000" stroke-width="2.4" stroke-linecap="square" stroke-linejoin="bevel" d="M0 43.2515C22.685 14.4114 33.3457 13.9866 35.6833 18.1417C38.0209 22.2968 81.1596 -17.4621 98.2929 9.36685C115.426 36.1958 108.192 44.2405 91.2005 45.4551C74.2089 46.6698 48.8144 43.8953 38.2865 46.5039C27.7586 49.1124 27.7586 49.1124 0 43.2515Z"/><path id="shape1" transform="matrix(1.00000002378138 0 0 0.99999994349593 539.684803518717 94.6546429505161)" fill="url(#gradient1)" stroke="#000000" stroke-width="2.4" stroke-linecap="square" stroke-linejoin="bevel" d="M51.5018 0C71.3977 12.4985 72.9384 25.1546 61.1797 32.8226C49.4209 40.4906 14.5802 36.409 7.4919 42.1202C0.403631 47.8313 13.9502 75.1236 8.38076 68.0547C2.81133 60.9857 -1.78515 51.0187 0.684 43.01C2.3301 37.6708 6.22115 34.5923 12.3571 33.7743C39.2288 32.3419 54.06 30.6028 56.8506 28.5572C61.0365 25.4886 64.6041 23.085 62.0828 17.0186C59.5615 10.9523 51.7943 7.92401 51.4929 5.77466C51.7231 1.34743 51.7231 1.34743 51.5018 0Z"/><path id="shape2" transform="matrix(0.996171652972616 -0.0874190146886537 0.0874190219396837 0.996171572994538 481.694201631501 106.336129272487)" sodipodi:type="arc" sodipodi:rx="1.10874721717346" sodipodi:ry="1.3468635770945" sodipodi:cx="1.10875301923052" sodipodi:cy="1.3468787720509" sodipodi:start="6.28318530717959" sodipodi:end="6.23695534189047" sodipodi:arc-type="chord" d="M2.21632 1.28464C2.18825 0.547643 1.6773 -0.0247508 1.07032 0.0008247C0.463337 0.0264002 -0.0137355 0.640425 0.000301992 1.37801C0.0143395 2.11559 0.514262 2.70218 1.12157 2.69365C1.72887 2.68513 2.2175 2.08466 2.2175 1.34688Z" fill="none" stroke="#000000" stroke-width="2.4" stroke-linecap="square" stroke-linejoin="bevel"/><path id="shape01" transform="matrix(1.00000004059732 0 0 0.999999958981751 514.416248166179 82.8644714833325)" fill="none" stroke="#000000" stroke-width="2.4" stroke-linecap="square" stroke-linejoin="bevel" d="M4.8498 0C6.59511 2.75466 4.97851 5.40622 0 7.95469"/><ellipse id="shape11" transform="matrix(1.00000004059732 0 0 0.999999958981751 501.766326358471 94.0676745250626)" rx="1.15231006503171" ry="1.25194674203379" cx="1.15231006503171" cy="1.25194674203379" fill="none" stroke="#000000" stroke-width="2.4" stroke-linecap="square" stroke-linejoin="bevel"/><circle id="shape13" transform="matrix(1.00000009235632 0 0 0.999999941080451 461.55414074324 12.4489267711102)" r="84" cx="84" cy="84" fill="none" stroke="#4c4c4c" stroke-width="9.6" stroke-linecap="square" stroke-linejoin="bevel"/>
</svg>
