<?xml version="1.0" standalone="no"?>
<!DOCTYPE svg PUBLIC "-//W3C//DTD SVG 20010904//EN" "http://www.w3.org/TR/2001/REC-SVG-20010904/DTD/svg10.dtd">
<!-- Created using Krita: http://krita.org -->
<svg xmlns="http://www.w3.org/2000/svg" 
    xmlns:xlink="http://www.w3.org/1999/xlink"
    xmlns:krita="http://krita.org/namespaces/svg/krita"
    xmlns:sodipodi="http://sodipodi.sourceforge.net/DTD/sodipodi-0.dtd"
    width="841.92pt"
    height="595.2pt"
    viewBox="0 0 841.92 595.2">
<defs/>
<circle id="shape131" transform="matrix(1.00000008586963 0 0 0.999999942775213 83.9606171316481 336.080317441696)" r="84" cx="84" cy="84" fill="none" stroke="#000000" stroke-width="9.6" stroke-linecap="square" stroke-linejoin="bevel"/><path id="shape0" transform="matrix(0.809589915577659 1.05416054436294 -1.05416055506903 0.809589928422567 164.776178502859 381.226846564386)" fill="none" stroke="#000000" stroke-width="2.3819928" stroke-linecap="square" stroke-linejoin="bevel" d="M59.3172 8.67801C35.3285 26.1801 17.066 34.7782 8.08172 38.3481C6.15531 38.3338 4.62255 37.3708 2.61545 38.1407C-0.894249 38.6695 -0.786814 42.853 2.42844 43.2793C6.30799 44.299 5.44333 44.0774 4.3458 46.8041C3.40111 49.4055 8.4361 50.9303 9.31572 50.8155C15.3369 47.2995 9.65331 44.5371 13.8056 42.8224C17.2486 40.4231 60.292 13.4142 64.2467 13.6945C68.0576 14.3931 68.4603 15.6443 70.9979 13.4399C72.2567 11.3105 72.7941 10.1724 70.0349 8.7991C65.6295 8.10616 67.3968 7.28097 66.1263 5.71054C67.0385 2.50752 64.5453 -0.846422 60.6415 0.192623C57.5374 1.23382 58.8838 2.00704 59.3172 8.67801Z"/><path id="shape0" transform="matrix(1.32105908319533 0.146605783298442 -0.146605783298442 1.32105908319533 124.885160302243 400.608545902939)" fill="none" stroke="#000000" stroke-width="2.3819928" stroke-linecap="square" stroke-linejoin="bevel" d="M57.2256 8.9964C33.9939 26.3514 17.6368 35.9338 8.15417 37.7438C5.35126 37.2056 3.25672 37.3345 1.87055 38.1305C-0.208717 39.3244 -1.05907 41.8036 2.00636 43.5309C5.07178 45.2583 3.96883 43.8204 3.84388 46.4956C3.71894 49.1708 5.39406 50.3327 7.80039 49.4165C10.2067 48.5003 10.2652 44.6374 13.6681 42.8162C17.0709 40.9951 58.8648 13.3255 62.9479 13.5673C67.031 13.8091 69.9337 16.7135 71.5147 11.826C71.9268 9.73803 70.8145 9.11345 68.415 7.9797C66.0155 6.84595 65.5705 7.39837 65.3937 5.03841C65.2169 2.67846 63.33 -1.15656 60.097 0.33499C58.409 1.34132 56.7901 0.890588 57.2256 8.9964Z"/><path id="shape1" transform="matrix(1.3291690475592 0 0 1.3291690475592 151.006358076543 420.19041112778)" fill="#ffffff" fill-rule="evenodd" stroke="#000000" stroke-width="2.3819928" stroke-linecap="square" stroke-linejoin="bevel" d="M0.0359379 1.59614C-0.142812 11.9647 0.345245 17.5806 1.50011 18.4438C3.23241 19.7386 7.81864 23.8464 11.2981 23.9961C14.7776 24.1458 20.7241 19.6176 22.1503 18.5578C23.1012 17.8512 23.2523 13.0855 22.6039 4.26082L22.6674 0"/><path id="shape2" transform="matrix(1.3291690475592 0 0 1.3291690475592 142.897886686267 396.868039948326)" fill="none" stroke="#000000" stroke-width="2.3819928" stroke-linecap="square" stroke-linejoin="bevel" d="M0 1.11702C1.01768 17.3087 10.6209 17.6043 10.551 25.7853C10.6979 30.3837 24.4555 30.9751 24.3917 26.4813C24.3094 18.8509 28.0312 17.9406 29.4885 15.85C30.9457 13.7595 33.3894 4.23507 33.4369 0"/><path id="shape3" transform="matrix(1.3291690475592 0 0 1.3291690475592 132.93704710322 362.573178741132)" fill="none" stroke="#000000" stroke-width="2.3819928" stroke-linecap="square" stroke-linejoin="bevel" d="M8.67143 37.1143C-0.0815869 34.6618 -0.30887 22.0792 0.125754 16.3158C0.366044 13.1294 5.88452 0.383128 23.586 0.014042C33.1554 -0.185484 40.0942 1.71087 44.3988 7.65734C49.1068 14.1611 49.4046 16.1732 49.0273 23.628C48.639 31.3012 45.6603 34.3615 43.3725 35.5817C42.2261 36.1931 40.9318 36.5857 39.4898 36.7594"/><path id="shape4" transform="matrix(1.3291690475592 0 0 1.3291690475592 157.357766186566 433.420020018912)" fill="#000000" fill-rule="evenodd" stroke="#000000" stroke-width="2.3819928" stroke-linecap="square" stroke-linejoin="bevel" d="M0 0C0.613593 2.43897 2.68938 3.78735 6.22737 4.04515C10.4734 4.22007 12.8345 3.10072 13.3106 0.687107C13.2318 -0.105242 9.89207 1.64375 8.57778 1.78082C7.26348 1.91789 4.28948 1.69365 2.8767 1.17548C1.46391 0.657301 1.46391 0.657301 0 0Z"/><path id="shape5" transform="matrix(1.3291690475592 0 0 1.3291690475592 160.785177971072 412.202489258698)" fill="#000000" fill-rule="evenodd" stroke="#000000" stroke-width="2.3819928" stroke-linecap="square" stroke-linejoin="bevel" d="M3.22574 0C1.93113 1.31026 -0.223108 5.00705 0.0187514 5.62086C0.260611 6.23467 1.50544 7.29845 2.29512 6.5077C2.82157 5.98054 3.24278 5.46568 3.55876 4.96313C3.94655 6.21516 4.44835 6.91544 5.06417 7.06397C5.98789 7.28678 6.80664 6.86611 6.86492 6.14308C6.9232 5.42006 7.24373 4.84557 6.45988 3.7512C5.67604 2.65683 5.77507 2.97386 3.22574 0Z"/><path id="shape6" transform="matrix(1.3291690475592 0 0 1.3291690475592 170.732929912955 393.922865121089)" fill="#000000" fill-rule="evenodd" stroke="#000000" stroke-width="2.3819928" stroke-linecap="square" stroke-linejoin="bevel" d="M0 0.383298C5.12964 0.310406 5.42425 -0.458254 7.01158 0.410655C8.59891 1.27956 9.73501 5.61872 7.78558 6.31991C5.83615 7.0211 4.65002 7.31185 3.22219 6.09079C1.79437 4.86973 2.28744 5.15397 0 0.383298Z"/><path id="shape7" transform="matrix(1.3291690475592 0 0 1.3291690475592 147.980423605354 394.599744549626)" fill="#000000" fill-rule="evenodd" stroke="#000000" stroke-width="2.3819928" stroke-linecap="square" stroke-linejoin="bevel" d="M8.87479 0.424774C1.65406 0.156096 2.33009 -0.549457 1.23737 0.802671C0.144639 2.1548 -0.56453 4.84911 0.595219 5.52189C1.75497 6.19468 3.65689 5.62983 5.02935 5.75215C6.32122 5.08566 4.78363 6.47986 8.87479 0.424774Z"/>
</svg>
